solid OpenSCAD_Model
  facet normal -1 0 0
    outer loop
      vertex 45.45 7.7 2.1
      vertex 45.45 12.1 6.1
      vertex 45.45 12.1 2.1
    endloop
  endfacet
  facet normal -1 -0 0
    outer loop
      vertex 45.45 12.1 6.1
      vertex 45.45 7.7 2.1
      vertex 45.45 7.7 6.1
    endloop
  endfacet
  facet normal 1 -0 0
    outer loop
      vertex 41.25 7.7 6.1
      vertex 41.25 12.1 2.1
      vertex 41.25 12.1 6.1
    endloop
  endfacet
  facet normal 1 0 0
    outer loop
      vertex 41.25 12.1 2.1
      vertex 41.25 7.7 6.1
      vertex 41.25 7.7 2.1
    endloop
  endfacet
  facet normal 0 1 -0
    outer loop
      vertex 45.45 7.7 2.1
      vertex 41.25 7.7 6.1
      vertex 45.45 7.7 6.1
    endloop
  endfacet
  facet normal 0 1 0
    outer loop
      vertex 41.25 7.7 6.1
      vertex 45.45 7.7 2.1
      vertex 41.25 7.7 2.1
    endloop
  endfacet
  facet normal 0 -1 0
    outer loop
      vertex 41.25 12.1 2.1
      vertex 45.45 12.1 6.1
      vertex 41.25 12.1 6.1
    endloop
  endfacet
  facet normal 0 -1 -0
    outer loop
      vertex 45.45 12.1 6.1
      vertex 41.25 12.1 2.1
      vertex 45.45 12.1 2.1
    endloop
  endfacet
  facet normal -1 0 0
    outer loop
      vertex 45.45 -12.1 2.1
      vertex 45.45 -7.7 6.1
      vertex 45.45 -7.7 2.1
    endloop
  endfacet
  facet normal -1 -0 0
    outer loop
      vertex 45.45 -7.7 6.1
      vertex 45.45 -12.1 2.1
      vertex 45.45 -12.1 6.1
    endloop
  endfacet
  facet normal 1 -0 0
    outer loop
      vertex 41.25 -12.1 6.1
      vertex 41.25 -7.7 2.1
      vertex 41.25 -7.7 6.1
    endloop
  endfacet
  facet normal 1 0 0
    outer loop
      vertex 41.25 -7.7 2.1
      vertex 41.25 -12.1 6.1
      vertex 41.25 -12.1 2.1
    endloop
  endfacet
  facet normal 0 1 -0
    outer loop
      vertex 45.45 -12.1 2.1
      vertex 41.25 -12.1 6.1
      vertex 45.45 -12.1 6.1
    endloop
  endfacet
  facet normal 0 1 0
    outer loop
      vertex 41.25 -12.1 6.1
      vertex 45.45 -12.1 2.1
      vertex 41.25 -12.1 2.1
    endloop
  endfacet
  facet normal 0 -1 0
    outer loop
      vertex 41.25 -7.7 2.1
      vertex 45.45 -7.7 6.1
      vertex 41.25 -7.7 6.1
    endloop
  endfacet
  facet normal 0 -1 -0
    outer loop
      vertex 45.45 -7.7 6.1
      vertex 41.25 -7.7 2.1
      vertex 45.45 -7.7 2.1
    endloop
  endfacet
  facet normal 0 0 1
    outer loop
      vertex 40.5 13.5133 6.1
      vertex 47 14.52 6.1
      vertex 47 16.68 6.1
    endloop
  endfacet
  facet normal 0 0 1
    outer loop
      vertex 47 14.52 6.1
      vertex 40.5 13.5133 6.1
      vertex 45.45 12.1 6.1
    endloop
  endfacet
  facet normal 0 0 1
    outer loop
      vertex 40.5 13.5133 6.1
      vertex 41.25 7.7 6.1
      vertex 41.25 12.1 6.1
    endloop
  endfacet
  facet normal 0 0 1
    outer loop
      vertex 41.25 7.7 6.1
      vertex 40.5 13.5133 6.1
      vertex 41.25 -7.7 6.1
    endloop
  endfacet
  facet normal 0 0 1
    outer loop
      vertex 40.5 -13.5133 6.1
      vertex 41.25 -7.7 6.1
      vertex 40.5 13.5133 6.1
    endloop
  endfacet
  facet normal 0 0 1
    outer loop
      vertex 45.45 12.1 6.1
      vertex 40.5 13.5133 6.1
      vertex 41.25 12.1 6.1
    endloop
  endfacet
  facet normal 0 0 1
    outer loop
      vertex 17 26.68 6.1
      vertex 40.5 13.5133 6.1
      vertex 47 16.68 6.1
    endloop
  endfacet
  facet normal -0 0 1
    outer loop
      vertex 17 22.68 6.1
      vertex 40.5 13.5133 6.1
      vertex 17 26.68 6.1
    endloop
  endfacet
  facet normal 0 0 1
    outer loop
      vertex 40.5 13.5133 6.1
      vertex 17 22.68 6.1
      vertex 13 22.68 6.1
    endloop
  endfacet
  facet normal 0 0 1
    outer loop
      vertex 45.45 12.1 6.1
      vertex 49.5 14.52 6.1
      vertex 47 14.52 6.1
    endloop
  endfacet
  facet normal 0 0 1
    outer loop
      vertex 49.5 14.52 6.1
      vertex 45.45 12.1 6.1
      vertex 49.5 6 6.1
    endloop
  endfacet
  facet normal -0 0 1
    outer loop
      vertex 45.45 7.7 6.1
      vertex 49.5 6 6.1
      vertex 45.45 12.1 6.1
    endloop
  endfacet
  facet normal 0 0 1
    outer loop
      vertex 45.45 7.7 6.1
      vertex 43.45 6 6.1
      vertex 49.5 6 6.1
    endloop
  endfacet
  facet normal 0 0 1
    outer loop
      vertex 43.45 6 6.1
      vertex 41.25 7.7 6.1
      vertex 43.45 -6 6.1
    endloop
  endfacet
  facet normal -0 0 1
    outer loop
      vertex 41.25 7.7 6.1
      vertex 43.45 6 6.1
      vertex 45.45 7.7 6.1
    endloop
  endfacet
  facet normal -0 0 1
    outer loop
      vertex 45.45 -12.1 6.1
      vertex 49.5 -14.52 6.1
      vertex 49.5 -6 6.1
    endloop
  endfacet
  facet normal 0 0 1
    outer loop
      vertex 49.5 -14.52 6.1
      vertex 45.45 -12.1 6.1
      vertex 47 -14.52 6.1
    endloop
  endfacet
  facet normal 0 0 1
    outer loop
      vertex 45.45 -12.1 6.1
      vertex 49.5 -6 6.1
      vertex 45.45 -7.7 6.1
    endloop
  endfacet
  facet normal -0 0 1
    outer loop
      vertex 43.45 -6 6.1
      vertex 45.45 -7.7 6.1
      vertex 49.5 -6 6.1
    endloop
  endfacet
  facet normal 0 0 1
    outer loop
      vertex 43.45 -6 6.1
      vertex 41.25 -7.7 6.1
      vertex 45.45 -7.7 6.1
    endloop
  endfacet
  facet normal 0 0 1
    outer loop
      vertex 41.25 -7.7 6.1
      vertex 43.45 -6 6.1
      vertex 41.25 7.7 6.1
    endloop
  endfacet
  facet normal -0 0 1
    outer loop
      vertex 40.5 -13.5133 6.1
      vertex 47 -14.52 6.1
      vertex 45.45 -12.1 6.1
    endloop
  endfacet
  facet normal 0 0 1
    outer loop
      vertex 40.5 -13.5133 6.1
      vertex 45.45 -12.1 6.1
      vertex 41.25 -12.1 6.1
    endloop
  endfacet
  facet normal 0 0 1
    outer loop
      vertex 41.25 -7.7 6.1
      vertex 40.5 -13.5133 6.1
      vertex 41.25 -12.1 6.1
    endloop
  endfacet
  facet normal 0 0 1
    outer loop
      vertex 47 -14.52 6.1
      vertex 40.5 -13.5133 6.1
      vertex 47 -16.68 6.1
    endloop
  endfacet
  facet normal 0 0 1
    outer loop
      vertex 17 -26.68 6.1
      vertex 40.5 -13.5133 6.1
      vertex 17 -22.68 6.1
    endloop
  endfacet
  facet normal 0 0 1
    outer loop
      vertex 40.5 -13.5133 6.1
      vertex 17 -26.68 6.1
      vertex 47 -16.68 6.1
    endloop
  endfacet
  facet normal 0 0 1
    outer loop
      vertex 40.5 -13.5133 6.1
      vertex 13 -22.68 6.1
      vertex 17 -22.68 6.1
    endloop
  endfacet
  facet normal 1 -0 0
    outer loop
      vertex 49.5 -14.52 6.1
      vertex 49.5 -6 2.1
      vertex 49.5 -6 6.1
    endloop
  endfacet
  facet normal 1 0 0
    outer loop
      vertex 49.5 -6 2.1
      vertex 49.5 -14.52 6.1
      vertex 49.5 -14.52 2.1
    endloop
  endfacet
  facet normal 1 -0 0
    outer loop
      vertex 49.5 6 6.1
      vertex 49.5 14.52 2.1
      vertex 49.5 14.52 6.1
    endloop
  endfacet
  facet normal 1 0 0
    outer loop
      vertex 49.5 14.52 2.1
      vertex 49.5 6 6.1
      vertex 49.5 6 2.1
    endloop
  endfacet
  facet normal 0 0 -1
    outer loop
      vertex 17 -30.68 2.1
      vertex 13 -30.68 2.1
      vertex 17 -26.68 2.1
    endloop
  endfacet
  facet normal 0 0 -1
    outer loop
      vertex 40.5 -13.5133 2.1
      vertex 47 -14.52 2.1
      vertex 47 -16.68 2.1
    endloop
  endfacet
  facet normal 0 0 -1
    outer loop
      vertex 47 -14.52 2.1
      vertex 40.5 -13.5133 2.1
      vertex 45.45 -12.1 2.1
    endloop
  endfacet
  facet normal 0 0 -1
    outer loop
      vertex 40.5 -13.5133 2.1
      vertex 41.25 -7.7 2.1
      vertex 41.25 -12.1 2.1
    endloop
  endfacet
  facet normal -0 0 -1
    outer loop
      vertex 41.25 -7.7 2.1
      vertex 40.5 -13.5133 2.1
      vertex 41.25 7.7 2.1
    endloop
  endfacet
  facet normal 0 0 -1
    outer loop
      vertex 40.5 13.5133 2.1
      vertex 41.25 7.7 2.1
      vertex 40.5 -13.5133 2.1
    endloop
  endfacet
  facet normal -0 0 -1
    outer loop
      vertex 45.45 -12.1 2.1
      vertex 40.5 -13.5133 2.1
      vertex 41.25 -12.1 2.1
    endloop
  endfacet
  facet normal 0 0 -1
    outer loop
      vertex 17 -26.68 2.1
      vertex 40.5 -13.5133 2.1
      vertex 47 -16.68 2.1
    endloop
  endfacet
  facet normal 0 0 -1
    outer loop
      vertex 17 -26.68 2.1
      vertex 13 -22.68 2.1
      vertex 40.5 -13.5133 2.1
    endloop
  endfacet
  facet normal 0 0 -1
    outer loop
      vertex 13 -22.68 2.1
      vertex 17 -26.68 2.1
      vertex 13 -30.68 2.1
    endloop
  endfacet
  facet normal 0 0 -1
    outer loop
      vertex 45.45 -12.1 2.1
      vertex 49.5 -14.52 2.1
      vertex 47 -14.52 2.1
    endloop
  endfacet
  facet normal 0 0 -1
    outer loop
      vertex 49.5 -14.52 2.1
      vertex 45.45 -12.1 2.1
      vertex 49.5 -6 2.1
    endloop
  endfacet
  facet normal 0 0 -1
    outer loop
      vertex 45.45 -7.7 2.1
      vertex 49.5 -6 2.1
      vertex 45.45 -12.1 2.1
    endloop
  endfacet
  facet normal 0 0 -1
    outer loop
      vertex 45.45 -7.7 2.1
      vertex 43.45 -6 2.1
      vertex 49.5 -6 2.1
    endloop
  endfacet
  facet normal -0 0 -1
    outer loop
      vertex 43.45 -6 2.1
      vertex 41.25 -7.7 2.1
      vertex 43.45 6 2.1
    endloop
  endfacet
  facet normal 0 0 -1
    outer loop
      vertex 41.25 -7.7 2.1
      vertex 43.45 -6 2.1
      vertex 45.45 -7.7 2.1
    endloop
  endfacet
  facet normal 0 0 -1
    outer loop
      vertex 45.45 12.1 2.1
      vertex 49.5 14.52 2.1
      vertex 49.5 6 2.1
    endloop
  endfacet
  facet normal -0 0 -1
    outer loop
      vertex 49.5 14.52 2.1
      vertex 45.45 12.1 2.1
      vertex 47 14.52 2.1
    endloop
  endfacet
  facet normal 0 0 -1
    outer loop
      vertex 45.45 12.1 2.1
      vertex 49.5 6 2.1
      vertex 45.45 7.7 2.1
    endloop
  endfacet
  facet normal 0 0 -1
    outer loop
      vertex 43.45 6 2.1
      vertex 45.45 7.7 2.1
      vertex 49.5 6 2.1
    endloop
  endfacet
  facet normal 0 0 -1
    outer loop
      vertex 43.45 6 2.1
      vertex 41.25 7.7 2.1
      vertex 45.45 7.7 2.1
    endloop
  endfacet
  facet normal 0 0 -1
    outer loop
      vertex 41.25 7.7 2.1
      vertex 43.45 6 2.1
      vertex 41.25 -7.7 2.1
    endloop
  endfacet
  facet normal 0 0 -1
    outer loop
      vertex 40.5 13.5133 2.1
      vertex 47 14.52 2.1
      vertex 45.45 12.1 2.1
    endloop
  endfacet
  facet normal 0 0 -1
    outer loop
      vertex 40.5 13.5133 2.1
      vertex 45.45 12.1 2.1
      vertex 41.25 12.1 2.1
    endloop
  endfacet
  facet normal 0 0 -1
    outer loop
      vertex 41.25 7.7 2.1
      vertex 40.5 13.5133 2.1
      vertex 41.25 12.1 2.1
    endloop
  endfacet
  facet normal -0 0 -1
    outer loop
      vertex 47 14.52 2.1
      vertex 40.5 13.5133 2.1
      vertex 47 16.68 2.1
    endloop
  endfacet
  facet normal 0 0 -1
    outer loop
      vertex 40.5 13.5133 2.1
      vertex 17 26.68 2.1
      vertex 47 16.68 2.1
    endloop
  endfacet
  facet normal 0 0 -1
    outer loop
      vertex 13 22.68 2.1
      vertex 17 26.68 2.1
      vertex 40.5 13.5133 2.1
    endloop
  endfacet
  facet normal 0 0 -1
    outer loop
      vertex 13 30.68 2.1
      vertex 17 26.68 2.1
      vertex 13 22.68 2.1
    endloop
  endfacet
  facet normal 0 0 -1
    outer loop
      vertex 17 26.68 2.1
      vertex 13 30.68 2.1
      vertex 17 30.68 2.1
    endloop
  endfacet
  facet normal -1 0 0
    outer loop
      vertex 40.5 -13.5133 2.1
      vertex 40.5 13.5133 6.1
      vertex 40.5 13.5133 2.1
    endloop
  endfacet
  facet normal -1 -0 0
    outer loop
      vertex 40.5 13.5133 6.1
      vertex 40.5 -13.5133 2.1
      vertex 40.5 -13.5133 6.1
    endloop
  endfacet
  facet normal 0 -1 0
    outer loop
      vertex 47 -14.52 2.1
      vertex 49.5 -14.52 6.1
      vertex 47 -14.52 6.1
    endloop
  endfacet
  facet normal 0 -1 -0
    outer loop
      vertex 49.5 -14.52 6.1
      vertex 47 -14.52 2.1
      vertex 49.5 -14.52 2.1
    endloop
  endfacet
  facet normal 0 1 -0
    outer loop
      vertex 49.5 14.52 2.1
      vertex 47 14.52 6.1
      vertex 49.5 14.52 6.1
    endloop
  endfacet
  facet normal 0 1 0
    outer loop
      vertex 47 14.52 6.1
      vertex 49.5 14.52 2.1
      vertex 47 14.52 2.1
    endloop
  endfacet
  facet normal 0 -1 0
    outer loop
      vertex 43.45 6 2.1
      vertex 49.5 6 6.1
      vertex 43.45 6 6.1
    endloop
  endfacet
  facet normal 0 -1 -0
    outer loop
      vertex 49.5 6 6.1
      vertex 43.45 6 2.1
      vertex 49.5 6 2.1
    endloop
  endfacet
  facet normal 1 -0 0
    outer loop
      vertex 43.45 -6 6.1
      vertex 43.45 6 2.1
      vertex 43.45 6 6.1
    endloop
  endfacet
  facet normal 1 0 0
    outer loop
      vertex 43.45 6 2.1
      vertex 43.45 -6 6.1
      vertex 43.45 -6 2.1
    endloop
  endfacet
  facet normal 0 1 -0
    outer loop
      vertex 49.5 -6 2.1
      vertex 43.45 -6 6.1
      vertex 49.5 -6 6.1
    endloop
  endfacet
  facet normal 0 1 0
    outer loop
      vertex 43.45 -6 6.1
      vertex 49.5 -6 2.1
      vertex 43.45 -6 2.1
    endloop
  endfacet
  facet normal 0.316228 -0.948683 0
    outer loop
      vertex 17 -26.68 2.1
      vertex 47 -16.68 6.1
      vertex 17 -26.68 6.1
    endloop
  endfacet
  facet normal 0.316228 -0.948683 0
    outer loop
      vertex 47 -16.68 6.1
      vertex 17 -26.68 2.1
      vertex 47 -16.68 2.1
    endloop
  endfacet
  facet normal -0.316229 0.948683 0
    outer loop
      vertex 40.5 -13.5133 2.1
      vertex 13 -22.68 6.1
      vertex 40.5 -13.5133 6.1
    endloop
  endfacet
  facet normal -0.316229 0.948683 0
    outer loop
      vertex 13 -22.68 6.1
      vertex 40.5 -13.5133 2.1
      vertex 13 -22.68 2.1
    endloop
  endfacet
  facet normal -1 0 0
    outer loop
      vertex 13 -30.68 2.1
      vertex 13 -22.68 6.1
      vertex 13 -22.68 2.1
    endloop
  endfacet
  facet normal -1 0 0
    outer loop
      vertex 13 -30.68 10.1
      vertex 13 -22.68 6.1
      vertex 13 -30.68 2.1
    endloop
  endfacet
  facet normal -1 0 0
    outer loop
      vertex 13 -22.68 6.1
      vertex 13 -30.68 10.1
      vertex 13 -22.68 10.1
    endloop
  endfacet
  facet normal 1 -0 0
    outer loop
      vertex 47 -16.68 6.1
      vertex 47 -14.52 2.1
      vertex 47 -14.52 6.1
    endloop
  endfacet
  facet normal 1 0 0
    outer loop
      vertex 47 -14.52 2.1
      vertex 47 -16.68 6.1
      vertex 47 -16.68 2.1
    endloop
  endfacet
  facet normal -0 0 1
    outer loop
      vertex 13 -22.68 10.1
      vertex 17 -30.68 10.1
      vertex 17 -22.68 10.1
    endloop
  endfacet
  facet normal 0 0 1
    outer loop
      vertex 17 -30.68 10.1
      vertex 13 -22.68 10.1
      vertex 13 -30.68 10.1
    endloop
  endfacet
  facet normal 1 0 0
    outer loop
      vertex 17 -22.68 10.1
      vertex 17 -26.68 6.1
      vertex 17 -22.68 6.1
    endloop
  endfacet
  facet normal 1 -0 0
    outer loop
      vertex 17 -30.68 10.1
      vertex 17 -26.68 6.1
      vertex 17 -22.68 10.1
    endloop
  endfacet
  facet normal 1 0 0
    outer loop
      vertex 17 -30.68 2.1
      vertex 17 -26.68 6.1
      vertex 17 -30.68 10.1
    endloop
  endfacet
  facet normal 1 0 0
    outer loop
      vertex 17 -26.68 6.1
      vertex 17 -30.68 2.1
      vertex 17 -26.68 2.1
    endloop
  endfacet
  facet normal 0 -1 0
    outer loop
      vertex 13 -30.68 2.1
      vertex 17 -30.68 10.1
      vertex 13 -30.68 10.1
    endloop
  endfacet
  facet normal 0 -1 -0
    outer loop
      vertex 17 -30.68 10.1
      vertex 13 -30.68 2.1
      vertex 17 -30.68 2.1
    endloop
  endfacet
  facet normal 0 1 -0
    outer loop
      vertex 17 -22.68 6.1
      vertex 13 -22.68 10.1
      vertex 17 -22.68 10.1
    endloop
  endfacet
  facet normal 0 1 0
    outer loop
      vertex 13 -22.68 10.1
      vertex 17 -22.68 6.1
      vertex 13 -22.68 6.1
    endloop
  endfacet
  facet normal 0.316228 0.948683 -0
    outer loop
      vertex 47 16.68 2.1
      vertex 17 26.68 6.1
      vertex 47 16.68 6.1
    endloop
  endfacet
  facet normal 0.316228 0.948683 0
    outer loop
      vertex 17 26.68 6.1
      vertex 47 16.68 2.1
      vertex 17 26.68 2.1
    endloop
  endfacet
  facet normal -0.316229 -0.948683 0
    outer loop
      vertex 13 22.68 2.1
      vertex 40.5 13.5133 6.1
      vertex 13 22.68 6.1
    endloop
  endfacet
  facet normal -0.316229 -0.948683 -0
    outer loop
      vertex 40.5 13.5133 6.1
      vertex 13 22.68 2.1
      vertex 40.5 13.5133 2.1
    endloop
  endfacet
  facet normal -1 0 0
    outer loop
      vertex 13 22.68 6.1
      vertex 13 30.68 2.1
      vertex 13 22.68 2.1
    endloop
  endfacet
  facet normal -1 0 0
    outer loop
      vertex 13 30.68 2.1
      vertex 13 22.68 6.1
      vertex 13 30.68 10.1
    endloop
  endfacet
  facet normal -1 -0 0
    outer loop
      vertex 13 30.68 10.1
      vertex 13 22.68 6.1
      vertex 13 22.68 10.1
    endloop
  endfacet
  facet normal 1 -0 0
    outer loop
      vertex 47 14.52 6.1
      vertex 47 16.68 2.1
      vertex 47 16.68 6.1
    endloop
  endfacet
  facet normal 1 0 0
    outer loop
      vertex 47 16.68 2.1
      vertex 47 14.52 6.1
      vertex 47 14.52 2.1
    endloop
  endfacet
  facet normal -0 0 1
    outer loop
      vertex 13 30.68 10.1
      vertex 17 22.68 10.1
      vertex 17 30.68 10.1
    endloop
  endfacet
  facet normal 0 0 1
    outer loop
      vertex 17 22.68 10.1
      vertex 13 30.68 10.1
      vertex 13 22.68 10.1
    endloop
  endfacet
  facet normal 1 0 0
    outer loop
      vertex 17 30.68 10.1
      vertex 17 26.68 6.1
      vertex 17 30.68 2.1
    endloop
  endfacet
  facet normal 1 -0 0
    outer loop
      vertex 17 22.68 10.1
      vertex 17 26.68 6.1
      vertex 17 30.68 10.1
    endloop
  endfacet
  facet normal 1 0 0
    outer loop
      vertex 17 26.68 6.1
      vertex 17 22.68 10.1
      vertex 17 22.68 6.1
    endloop
  endfacet
  facet normal 1 0 0
    outer loop
      vertex 17 30.68 2.1
      vertex 17 26.68 6.1
      vertex 17 26.68 2.1
    endloop
  endfacet
  facet normal 0 1 -0
    outer loop
      vertex 17 30.68 2.1
      vertex 13 30.68 10.1
      vertex 17 30.68 10.1
    endloop
  endfacet
  facet normal 0 1 0
    outer loop
      vertex 13 30.68 10.1
      vertex 17 30.68 2.1
      vertex 13 30.68 2.1
    endloop
  endfacet
  facet normal 0 -1 0
    outer loop
      vertex 13 22.68 6.1
      vertex 17 22.68 10.1
      vertex 13 22.68 10.1
    endloop
  endfacet
  facet normal 0 -1 -0
    outer loop
      vertex 17 22.68 10.1
      vertex 13 22.68 6.1
      vertex 17 22.68 6.1
    endloop
  endfacet
endsolid OpenSCAD_Model
